<!-- icon666.com - MILLIONS vector ICONS FREE --><svg id="Master_Line" enable-background="new 0 0 512 512" viewBox="0 0 512 512" xmlns="http://www.w3.org/2000/svg"><g><path d="m115.58 203.03 2.02-7.54c.5-1.85-.6-3.75-2.45-4.25l-7.54-2.02c-1.85-.5-3.75.6-4.25 2.45l-2.02 7.54c-.5 1.85.6 3.75 2.45 4.25l7.54 2.02c1.86.5 3.76-.6 4.25-2.45z"></path><path d="m98.99 163.25-7.54-2.02c-1.85-.5-3.75.6-4.25 2.45l-2.02 7.54c-.5 1.85.6 3.75 2.45 4.25l7.54 2.02c1.85.5 3.75-.6 4.25-2.45l2.02-7.54c.5-1.85-.6-3.75-2.45-4.25z"></path><path d="m82.83 135.26-7.54-2.02c-1.85-.5-3.75.6-4.25 2.45l-2.02 7.54c-.5 1.85.6 3.75 2.45 4.25l7.54 2.02c1.85.5 3.75-.6 4.25-2.45l2.02-7.54c.5-1.85-.6-3.75-2.45-4.25z"></path><path d="m408.64 191.67c-.5-1.85-2.4-2.95-4.25-2.45l-7.54 2.02c-1.85.5-2.95 2.4-2.45 4.25l2.02 7.54c.5 1.85 2.4 2.95 4.25 2.45l7.54-2.02c1.85-.5 2.95-2.4 2.45-4.25z"></path><path d="m424.8 163.68c-.5-1.85-2.4-2.95-4.25-2.45l-7.54 2.02c-1.85.5-2.95 2.4-2.45 4.25l2.02 7.54c.5 1.85 2.4 2.95 4.25 2.45l7.54-2.02c1.85-.5 2.95-2.4 2.45-4.25z"></path><path d="m440.97 135.69c-.5-1.85-2.4-2.95-4.25-2.45l-7.54 2.02c-1.85.5-2.95 2.4-2.45 4.25l2.02 7.54c.5 1.85 2.4 2.95 4.25 2.45l7.54-2.02c1.85-.5 2.95-2.4 2.45-4.25z"></path><path d="m460.36 126.16-25.08-14.48c-2.21-1.28-4.79-1.62-7.26-.96s-4.53 2.24-5.81 4.46l-45.18 78.25v-64.42c0-18.64-4.79-37.11-13.86-53.4-15.37-27.61-40.45-48.02-70.62-57.47-24.02-7.52-49.41-7.52-73.42 0-30.16 9.45-55.24 29.86-70.61 57.47-9.07 16.29-13.86 34.75-13.86 53.4v63.87l-44.86-77.7c-1.28-2.21-3.34-3.8-5.81-4.46s-5.05-.32-7.26.96l-25.08 14.48c-2.21 1.28-3.8 3.34-4.46 5.81s-.32 5.05.96 7.26l49.96 86.53-12.32 7.11c-1.67.97-2.25 3.11-1.28 4.78.65 1.12 1.82 1.75 3.03 1.75.59 0 1.2-.15 1.75-.47l3.27-1.89 11.43 19.79c1.63 2.81 4.25 4.83 7.39 5.67 1.05.28 2.11.42 3.17.42 1.54 0 3.07-.3 4.51-.89l31.35 54.3c-21.63 13.75-34.54 38.88-31.67 65.56l7.76 72.12c2.23 20.72 18.24 37.15 38.95 39.99.05.01.1.01.14.02 26.94 3.65 56.93 5.47 87.38 5.47 31.55 0 63.6-1.95 93.24-5.86 20.74-2.73 36.79-19.18 39.03-40.01l7.72-71.74c2.86-26.58-9.94-51.63-31.43-65.41l31.44-54.45c1.44.58 2.97.89 4.51.89 1.06 0 2.12-.14 3.17-.42 3.14-.84 5.76-2.85 7.39-5.67l11.43-19.79 3.27 1.89c.55.32 1.15.47 1.75.47 1.21 0 2.39-.63 3.03-1.75.97-1.67.39-3.81-1.28-4.78 0 0-6.3-3.64-6.3-3.64l-6.02-3.47 49.96-86.53c2.62-4.56 1.04-10.42-3.52-13.06zm-318.7 2.85c0-17.45 4.49-34.74 12.98-49.99 14.5-26.04 38.15-45.29 66.59-54.2 22.65-7.09 46.59-7.09 69.24 0 28.44 8.91 52.09 28.16 66.59 54.2 8.49 15.25 12.98 32.54 12.98 49.99v40.99c-34.85-19.09-64.67-46.58-86.49-79.83l-16.31-24.86c-2.53-3.85-6.78-6.15-11.39-6.15-4.6 0-8.86 2.3-11.39 6.15l-16.31 24.86c-16.27 24.79-37.32 46.69-61.44 64.05-.04.02-.07.05-.1.07-4.3 3.09-8.68 6.06-13.17 8.85-1.64 1.02-2.14 3.18-1.12 4.82s3.18 2.14 4.82 1.12c2.74-1.71 5.43-3.49 8.11-5.3l.26 19.14v.12c1.52 30.92 17.64 58.73 42.31 75.68v36.3l-51.8-55.33c-9.26-9.89-14.36-22.79-14.36-36.34zm73.14 173.71c0-.06.02-.12.02-.18v-39.45c6.24 3.55 12.92 6.45 19.98 8.58l8.79 2.65c4 1.21 8.11 1.81 12.22 1.81s8.22-.6 12.22-1.81l8.79-2.65c7.06-2.13 13.74-5.03 19.97-8.57v39.69l-40.92 56.86zm36.76 62.92-15.9 22.1-54.34-75.3c9.45-1.98 18.95-3.59 28.37-4.81zm87.55-182.88c-.33 6.62-1.4 13.09-3.1 19.31l-71.18-24.76c-5.58-1.94-11.65-1.94-17.23-.01l-71.96 24.92c-1.73-6.27-2.81-12.79-3.14-19.47l-.32-23.86c16.46-12.02 31.5-26.11 44.61-41.75h78.09c13.09 15.65 28.06 29.66 44.53 41.68zm-284.9-47.03c-.71-1.23-.29-2.8.94-3.51l25.08-14.48c.4-.23.83-.35 1.28-.35.22 0 .45.03.67.09.66.18 1.22.6 1.56 1.2l49.96 86.53-29.53 17.05zm62.9 119.5c-1.2.69-2.59.87-3.92.52-1.33-.36-2.45-1.21-3.14-2.41l-11.43-19.79 36.71-21.2c1.42 9.46 5.07 18.41 10.69 26.18zm8.07 3.42 25.32-14.62c.14.15 53.62 57.29 53.62 57.29-10.73 1.53-21.53 3.54-32.22 6.01-5.45 1.26-10.6 3.14-15.41 5.55zm39.23 228.11c-16.55-3.14-29.14-16.64-30.96-33.48l-7.76-72.12c-3.35-31.12 17.19-59.92 47.78-67l.39-.09 57.48 79.66zm221.58-105.61-7.72 71.74c-1.89 17.6-15.46 31.51-32.98 33.82-55.66 7.33-119.84 7.72-173.04 1.14l129.65-180.18c5.01.78 17.98 2.82 28.38 4.83l-116.3 161.62c-1.13 1.57-.77 3.76.8 4.89.62.45 1.33.66 2.04.66 1.09 0 2.16-.51 2.84-1.46l118.12-164.15c.14.03.29.06.42.1 30.6 7.06 51.14 35.87 47.79 66.99zm-30.55-68.14c-4.88-2.47-10.12-4.4-15.66-5.68-10.35-2.39-28.8-5.34-36-6.45v-42.15c24.67-16.95 40.8-44.75 42.32-75.68 0-.04 0-.08 0-.13l.24-19.2c7.61 5.17 15.51 9.93 23.68 14.24v25.41c0 13.55-5.1 26.45-14.36 36.34l-40.16 42.89c-1.32 1.41-1.25 3.63.16 4.95s3.63 1.25 4.95-.16c0 0 40.51-43.29 40.68-43.48l25.54 14.74zm46.52-59.67c-.69 1.2-1.8 2.05-3.14 2.41-1.33.36-2.73.17-3.92-.52l-29.14-16.82c5.59-7.79 9.22-16.75 10.62-26.22l37.01 21.37zm55.84-117.61-49.96 86.53-17.79-10.27-11.74-6.78 49.96-86.53c.34-.59.9-1.02 1.56-1.2s1.35-.09 1.95.26l25.08 14.48c1.22.71 1.64 2.29.94 3.51z"></path><path d="m420.95 297.67c-1.19-1.52-3.39-1.79-4.91-.6l-20.52 16.04c-1.52 1.19-1.79 3.39-.6 4.91.69.88 1.72 1.34 2.76 1.34.75 0 1.51-.24 2.15-.74l20.52-16.04c1.52-1.19 1.79-3.39.6-4.91z"></path><path d="m438.37 396.89-25.21-6.5c-1.87-.48-3.78.64-4.26 2.52-.48 1.87.64 3.78 2.52 4.26l25.21 6.5c.29.08.59.11.88.11 1.56 0 2.98-1.05 3.39-2.63.47-1.87-.66-3.78-2.53-4.26z"></path><path d="m116.16 313.1-20.52-16.04c-1.52-1.19-3.72-.92-4.91.6s-.92 3.72.6 4.91l20.52 16.04c.64.5 1.4.74 2.15.74 1.04 0 2.07-.46 2.76-1.34 1.2-1.52.93-3.72-.6-4.91z"></path><path d="m98.53 390.39-25.22 6.5c-1.87.48-3 2.39-2.52 4.26.41 1.58 1.83 2.63 3.39 2.63.29 0 .58-.04.88-.11l25.22-6.5c1.87-.48 3-2.39 2.52-4.26-.49-1.87-2.4-3-4.27-2.52z"></path></g></svg>